<?xml version="1.0" standalone="no"?>
<!DOCTYPE svg PUBLIC "-//W3C//DTD SVG 20010904//EN"
 "http://www.w3.org/TR/2001/REC-SVG-20010904/DTD/svg10.dtd">
<svg version="1.0" xmlns="http://www.w3.org/2000/svg"
 width="294.000000pt" height="294.000000pt" viewBox="0 0 294.000000 294.000000"
 preserveAspectRatio="xMidYMid meet">
<metadata>
Created by potrace 1.11, written by Peter Selinger 2001-2013
</metadata>
<g transform="translate(0.000000,294.000000) scale(0.100000,-0.100000)"
fill="#000000" stroke="none">
<path d="M1440 2524 c-47 -7 -295 -68 -400 -99 -115 -34 -290 -124 -378 -195
-176 -141 -263 -243 -370 -438 -112 -205 -132 -277 -133 -482 -1 -85 2 -177 6
-205 15 -97 117 -330 201 -455 85 -128 196 -218 251 -204 41 11 35 34 -24 101
-80 89 -115 141 -179 267 -95 185 -106 225 -111 416 -5 157 -4 170 22 260 18
63 51 139 97 225 99 182 110 197 228 315 170 171 349 262 700 357 96 25 120
28 270 28 224 -1 354 -24 540 -98 36 -14 92 -36 125 -48 80 -30 113 -55 222
-168 151 -157 183 -245 200 -560 11 -210 -23 -343 -120 -469 -53 -70 -96 -136
-149 -230 -13 -23 -69 -84 -124 -135 -110 -100 -256 -188 -389 -234 -93 -31
-222 -45 -305 -33 -36 6 -121 17 -190 25 -173 21 -217 30 -280 58 -102 46
-210 157 -236 244 -18 59 -18 203 0 268 21 78 72 176 110 215 20 19 36 39 36
43 0 4 17 34 39 65 21 31 50 80 64 108 28 56 54 82 66 68 4 -5 22 -44 40 -86
45 -104 43 -103 284 -93 106 5 217 9 247 10 30 0 64 4 76 8 11 4 53 48 92 97
40 50 77 90 82 90 4 0 14 -26 20 -57 7 -32 22 -89 34 -128 21 -65 25 -71 61
-83 42 -14 70 -9 79 14 3 8 -8 63 -25 122 -17 59 -41 140 -52 180 -23 80 -38
96 -96 94 -41 -2 -96 -52 -192 -173 l-60 -76 -127 -6 c-70 -4 -166 -7 -213 -7
l-87 0 -19 48 c-11 26 -33 78 -48 115 -31 75 -55 93 -107 82 -37 -9 -158 -151
-158 -187 0 -8 -16 -38 -35 -68 -19 -30 -35 -62 -35 -71 0 -9 -12 -22 -28 -28
-36 -15 -70 -59 -120 -156 -50 -97 -66 -188 -60 -327 4 -88 8 -102 39 -154 53
-87 163 -184 272 -238 50 -25 103 -46 115 -46 13 0 33 -6 45 -12 12 -7 56 -16
97 -19 41 -4 93 -12 115 -19 22 -6 65 -16 95 -21 153 -25 160 -25 355 29 137
38 210 68 322 134 48 28 105 60 126 71 20 12 37 25 37 29 0 5 28 38 61 73 34
35 95 115 135 177 40 62 91 138 113 169 54 78 69 109 97 202 38 128 49 280 28
407 -9 58 -20 134 -24 170 -15 128 -83 242 -232 388 -137 135 -278 220 -432
262 -192 53 -568 92 -706 74z"/>
<path d="M1922 1115 c-24 -30 -19 -58 16 -85 31 -25 63 -25 92 -2 26 21 22 48
-14 87 -30 32 -69 32 -94 0z"/>
<path d="M1203 1095 c-15 -32 -15 -37 -1 -51 23 -23 91 -30 107 -10 11 13 10
22 -6 53 -14 31 -24 39 -50 41 -29 3 -35 -1 -50 -33z"/>
<path d="M1593 1058 c-33 -38 -73 -115 -73 -141 0 -44 58 -46 91 -4 l17 20 27
-21 c35 -27 85 -30 85 -4 0 9 -11 34 -25 54 -14 20 -25 43 -25 51 0 22 -39 67
-59 67 -10 0 -27 -10 -38 -22z"/>
</g>
</svg>
